<?xml version="1.0" encoding="utf-8"?>
<!-- Generator: Adobe Illustrator 21.0.2, SVG Export Plug-In . SVG Version: 6.00 Build 0)  -->
<svg version="1.1" id="Layer_1" xmlns="http://www.w3.org/2000/svg" xmlns:xlink="http://www.w3.org/1999/xlink" x="0px" y="0px"
	 viewBox="0 0 500 500" style="enable-background:new 0 0 500 500;" xml:space="preserve">
<style type="text/css">
	.st0{fill:#004151;}
	.st1{fill:#FFFFFF;}
	.st2{display:none;}
	.st3{display:inline;fill:#FFFFFF;}
	.st4{display:inline;}
</style>
<g id="Back">
	<g id="XMLID_1_">
		<g>
			<circle class="st0" cx="250" cy="249.7" r="229.9"/>
		</g>
		<g>
		</g>
	</g>
</g>
<g id="Layer_1_1_">
</g>
<g id="Layer_9">
	<g transform="translate(1 1)">
		<g>
			<g>
				<path class="st1" d="M384,382.3h-30v-285c0-3-2-5-5-5H149c-3,0-5,2-5,5v285h-30c-3,0-5,2-5,5s2,5,5,5h35h20h160h20h35
					c3,0,5-2,5-5S387,382.3,384,382.3z M174,382.3v-260h150v260H174z M334,382.3v-265c0-3-2-5-5-5H169c-3,0-5,2-5,5v265h-10v-280
					h190v280H334L334,382.3z"/>
				<path class="st1" d="M309,237.3h-20c-3,0-5,2-5,5v5h-10c-3,0-5,2-5,5s2,5,5,5h10v5c0,3,2,5,5,5h20c3,0,5-2,5-5v-20
					C314,239.3,312,237.3,309,237.3z M304,257.3h-10v-10h10V257.3L304,257.3z"/>
			</g>
		</g>
	</g>
</g>
<g id="Phone">
</g>
<g id="Taxi" class="st2">
	<path class="st3" d="M351.7,203l-9.2-41.2c-3.7-13.7-13.7-20.2-27.5-20.2H182.2c-14.7,0-22.9,7.3-26.6,20.2l-9.2,41.2h-36.6v10.1
		h33v0.9c-15.6,0.9-28.4,14.7-28.4,31.1v71.4H130v15.6c0,14.7,11,25.6,25.6,25.6s25.6-11,25.6-25.6v-15.6H315v15.6
		c0,14.7,11,25.6,25.6,25.6c14.7,0,25.6-11,25.6-25.6v-15.6h15.6v-71.4c0-15.6-11.9-29.3-27.5-31.1v-0.9h33V203H351.7L351.7,203z
		 M164.8,165.5c2.7-9.2,7.3-13.7,17.4-13.7H316c10.1,0,15.6,3.7,18.3,12.8l10.1,49.5H153.8L164.8,165.5L164.8,165.5z M171.2,331.2
		c0,9.2-6.4,15.6-15.6,15.6c-9.2,0-15.6-6.4-15.6-15.6v-15.6h31.1C171.2,316.6,171.2,331.2,171.2,331.2z M357.2,331.2
		c0,9.2-6.4,15.6-15.6,15.6s-15.6-6.4-15.6-15.6v-15.6h31.1v15.6H357.2z M371.8,245.1v61.4H125.4v-61.4c0-11,9.2-20.2,20.2-20.2
		h205.2C362.7,224.1,371.8,233.2,371.8,245.1L371.8,245.1z"/>
	<g id="icomoon-ignore" class="st4">
	</g>
	<path class="st3" d="M166.6,244.2c-11,0-20.2,9.2-20.2,20.2s9.2,20.2,20.2,20.2s20.2-9.2,20.2-20.2S177.6,244.2,166.6,244.2z
		 M166.6,275.4c-5.5,0-10.1-4.6-10.1-10.1s4.6-10.1,10.1-10.1s10.1,4.6,10.1,10.1S172.1,275.4,166.6,275.4z"/>
	<path class="st3" d="M330.6,244.2c-11,0-20.2,9.2-20.2,20.2s9.2,20.2,20.2,20.2s20.2-9.2,20.2-20.2
		C350.8,253.4,342.5,244.2,330.6,244.2z M330.6,275.4c-5.5,0-10.1-4.6-10.1-10.1s4.6-10.1,10.1-10.1s10.1,4.6,10.1,10.1
		C341.6,270.8,337,275.4,330.6,275.4z"/>
</g>
<g id="Outbound" class="st2">
	<path class="st3" d="M372.9,124.8c-1.9,0-3.4,1.5-3.4,3.5v214.5c0,1.9,1.5,3.5,3.4,3.5s3.5-1.5,3.5-3.5V128.3
		C376.4,126.3,374.8,124.8,372.9,124.8z M360.6,133.1c-1.2-0.6-2.6-0.4-3.6,0.4l-3.9,3.1c-20.6,16.3-55.1,43.6-125.4,43.6h-96
		c-10,0-18.2,8.3-18.2,18.5v74.1c0,10,8.2,18.1,18.2,18.1h23.5c0.6,7.8,3.5,26.3,17,39.9c10.2,10.3,24.2,15.5,41.7,15.5
		c1.9,0,3.5-1.5,3.5-3.5c0-1.9-1.5-3.5-3.5-3.5c-15.5,0-27.9-4.5-36.7-13.4c-11.5-11.6-14.3-27.8-15-35h20.7
		c0.6,4.7,2.5,13,8.8,19.4c5.5,5.5,12.9,8.3,22.1,8.3c1.9,0,3.5-1.5,3.5-3.5c0-1.9-1.5-3.5-3.5-3.5c-7.3,0-13.1-2.1-17.2-6.2
		c-4.5-4.6-6.2-10.7-6.8-14.6h37.3c70.7,0,105.4,27.4,126.2,43.8l3.6,2.8c0.6,0.5,1.4,0.7,2.1,0.7c0.5,0,1-0.1,1.5-0.4
		c1.2-0.6,1.9-1.8,1.9-3.1V136.2C362.6,134.9,361.8,133.7,360.6,133.1z M120.4,272.8v-74.1c0-6.4,5.1-11.6,11.3-11.6H155V284h-23.3
		C125.3,283.9,120.4,279,120.4,272.8z M355.7,327.7C334,310.6,298.1,284,227.2,284h-65.3v-96.9h65.7c70.8,0,106.5-26.7,128-43.7
		v184.3H355.7z M103.1,276c1.9,0,3.5-1.5,3.5-3.5v-74.1c0-1.9-1.5-3.5-3.5-3.5c-1.9,0-3.5,1.5-3.5,3.5v74.1
		C99.6,274.5,101.2,276,103.1,276z"/>
</g>
<g id="Agent_Assisted_Payments" class="st2">
	<path class="st3" d="M359.1,228.5c-1.9-0.6-3.9,0.4-4.5,2.3c-0.6,1.9,0.4,3.9,2.3,4.5c28.1,9,40.6,22.3,40.6,43.3
		c0,18.7-17.1,33.2-27.2,40.2c-1,0.7-1.6,1.8-1.6,3v27.5c-5.3-2-14.4-6.4-22.5-15.5c-0.8-0.9-2.1-1.4-3.4-1.1c-2,0.4-4.1,1-6.3,1.5
		c-3.7,1-7.5,2-11,2c-18.5,0-31.4-4-44.6-13.7c-1.6-1.2-3.8-0.8-5,0.8c-1.2,1.6-0.8,3.8,0.8,5c14.6,10.7,28.7,15.1,48.9,15.1
		c4.5,0,8.8-1.1,12.9-2.3c1.3-0.4,2.6-0.7,3.8-1c13.4,14.2,28.6,17.4,29.3,17.6c0.2,0.1,0.5,0.1,0.7,0.1c0.8,0,1.6-0.3,2.3-0.8
		c0.8-0.7,1.3-1.7,1.3-2.8v-30.5c18.6-13.2,28.8-29.2,28.8-45C404.7,254.4,390.2,238.4,359.1,228.5z M340,224.8
		c0-55.3-50.5-97.1-117.4-97.1c-67.3,0-119.9,42.7-119.9,97.1c0,32.6,23.1,56,43.2,70.2v47.7c0,1.2,0.6,2.4,1.6,3
		c0.6,0.4,1.3,0.6,2,0.6c0.5,0,1-0.1,1.5-0.3c1.1-0.5,25.6-11.6,46.6-34.6c9.1,1.7,19.4,3.3,28.7,3.3
		C294.3,314.7,340,278.6,340,224.8z M226.2,307.5c-9.4,0-20.1-1.8-29.4-3.6c-1.2-0.2-2.5,0.2-3.4,1.1
		c-14.7,16.6-32.1,27.2-40.5,31.7V293c0-1.2-0.6-2.3-1.6-3c-19-13.1-41.6-35-41.6-65.3c0-50.4,49.5-89.9,112.7-89.9
		c62.8,0,110.2,38.6,110.2,89.9C332.8,274.3,290,307.5,226.2,307.5z M221.3,210.4c-7.9,0-14.4,6.5-14.4,14.4s6.5,14.4,14.4,14.4
		s14.4-6.5,14.4-14.4S229.3,210.4,221.3,210.4z M221.3,232c-4,0-7.2-3.2-7.2-7.2s3.2-7.2,7.2-7.2s7.2,3.2,7.2,7.2
		S225.3,232,221.3,232z M271.7,210.4c-7.9,0-14.4,6.5-14.4,14.4s6.5,14.4,14.4,14.4s14.4-6.5,14.4-14.4S279.6,210.4,271.7,210.4z
		 M271.7,232c-4,0-7.2-3.2-7.2-7.2s3.2-7.2,7.2-7.2s7.2,3.2,7.2,7.2S275.7,232,271.7,232z M171,211.1c-7.9,0-14.4,6.5-14.4,14.4
		s6.5,14.4,14.4,14.4s14.4-6.5,14.4-14.4S178.9,211.1,171,211.1z M171,232.6c-4,0-7.2-3.2-7.2-7.2s3.2-7.2,7.2-7.2s7.2,3.2,7.2,7.2
		S175,232.6,171,232.6z"/>
</g>
<g id="Web_Payments" class="st2">
	<path class="st3" d="M97.4,256.1c3.4,81.3,70.4,146.5,152.6,146.5s149.2-65.2,152.6-146.5c0.2-0.5,0.3-1,0.3-1.6
		c0-0.3-0.1-0.6-0.2-1c0-1.3,0.2-2.5,0.2-3.8c0-84.3-68.6-152.9-152.9-152.9S97.1,165.4,97.1,249.7c0,1.3,0.2,2.5,0.2,3.8
		c-0.1,0.3-0.2,0.6-0.2,1C97.1,255.1,97.2,255.6,97.4,256.1z M335.3,314.2c-12.6-5.3-26.1-9.4-40.3-12.1c1.5-13.9,2.4-28.3,2.7-42.7
		h47.6C344.4,278.9,340.9,297.5,335.3,314.2z M354.8,259.3h38.1c-1.8,26.8-10.9,51.6-25.5,72.4c-7.3-5.1-15.1-9.7-23.5-13.8
		C350.1,300.1,353.9,280.3,354.8,259.3z M215.5,309.8c11.3-1.8,22.8-2.7,34.5-2.7c11.7,0,23.3,1,34.5,2.7
		c-6.6,51-21.1,83.3-34.5,83.3S222.1,360.8,215.5,309.8z M230,389.9c-26.3-8.4-48.5-33.2-62-66.8c11.9-5,24.7-8.9,38.1-11.6
		C210.6,344.9,218.6,374,230,389.9z M214.4,199.2C226,201,238,202,250,202s24-1,35.6-2.8c1.6,15.5,2.6,32.4,2.6,50.6h-76.5
		C211.8,231.5,212.7,214.6,214.4,199.2z M288.1,259.3c-0.3,14.6-1.1,28.3-2.5,41c-11.6-1.8-23.5-2.8-35.6-2.8s-24,1-35.6,2.8
		c-1.7-15.5-2.3-29.2-2.5-41H288.1z M293.8,311.5c13.4,2.7,26.2,6.6,38.1,11.6c-13.4,33.6-35.7,58.3-62,66.8
		C281.4,374,289.4,344.9,293.8,311.5z M297.8,249.7c0-17.5-1-35.3-2.8-52.3c14.1-2.8,27.7-6.9,40.3-12.1
		c6.5,19.4,10.3,41.2,10.3,64.4L297.8,249.7L297.8,249.7z M293.8,188c-4.4-33.4-12.4-62.5-23.8-78.4c26.3,8.4,48.5,33.2,62,66.8
		C320,181.3,307.2,185.3,293.8,188z M284.5,189.6c-11.3,1.8-22.8,2.7-34.5,2.7c-11.7,0-23.3-1-34.5-2.7c6.6-51,21.1-83.3,34.5-83.3
		C263.4,106.4,277.9,138.7,284.5,189.6z M206.2,188c-13.4-2.7-26.2-6.6-38.1-11.6c13.4-33.6,35.7-58.3,62-66.8
		C218.6,125.4,210.6,154.5,206.2,188z M205,197.4c-1.8,17-2.8,34.7-2.8,52.3h-47.8c0-23.2,3.8-45,10.3-64.4
		C177.3,190.6,190.9,194.6,205,197.4z M202.3,259.3c0.3,14.4,1.2,28.8,2.7,42.7c-14.1,2.8-27.7,6.9-40.3,12.1
		c-5.6-16.7-9.1-35.2-10-54.9L202.3,259.3L202.3,259.3z M156,318c-8.4,4-16.2,8.7-23.5,13.8c-14.6-20.8-23.7-45.6-25.5-72.4h38.1
		C146.1,280.3,149.9,300.1,156,318z M138.3,339.4c6.5-4.6,13.5-8.8,21.1-12.5c9.6,23.8,23.4,43.5,40,56.8
		C175.3,374.6,154.2,359.2,138.3,339.4z M300.6,383.7c16.6-13.3,30.4-33.1,40-56.8c7.6,3.7,14.5,7.9,21.1,12.5
		C345.8,359.2,324.7,374.6,300.6,383.7z M355.1,249.7c0-24.5-4.1-47.7-11.2-68.2c8.4-4,16.2-8.7,23.5-13.8
		c16.3,23.3,25.9,51.5,25.9,82H355.1z M361.7,160.1c-6.5,4.6-13.5,8.8-21.1,12.5c-9.6-23.8-23.4-43.5-40-56.8
		C324.7,124.9,345.8,140.3,361.7,160.1z M199.4,115.8c-16.6,13.3-30.4,33.1-40,56.8c-7.6-3.7-14.5-7.9-21.1-12.5
		C154.2,140.3,175.3,124.9,199.4,115.8z M132.6,167.7c7.2,5.1,15.1,9.7,23.5,13.8c-7.1,20.6-11.2,43.7-11.2,68.2h-38.2
		C106.6,219.2,116.3,191,132.6,167.7z"/>
</g>
<g id="Web_Payments_copy" class="st2">
	<g class="st4">
		<g>
			<path class="st1" d="M377,123.1c-2.1-2.1-5.3-2.8-8-1.7L149.6,204c-3.1,1.1-5,4.1-4.9,7.4c0.1,3.3,2.3,6.1,5.4,7l55,16.3
				L123.7,316c-3,2.9-3,7.8,0,10.7l49.6,49.6c2.9,3,7.8,3,10.7,0l82.5-82.5l15.2,55.9c0.9,3.2,3.7,5.4,7,5.6
				c3.3,0.1,6.3-1.8,7.5-4.9L378.8,131C379.8,128.3,379.1,125.2,377,123.1z M290.2,323.2l-12.5-45.9c-0.7-2.6-2.7-4.7-5.4-5.4
				c-2.6-0.7-5.4,0.1-7.3,2l-86.4,86.4l-38.9-38.9l85-85c1.9-1.9,2.6-4.6,2-7.2c-0.7-2.6-2.6-4.7-5.2-5.4l-45.6-13.5l182.6-68.8
				L290.2,323.2z"/>
		</g>
	</g>
</g>
<g id="Click-to-Pay" class="st2">
	<path class="st3" d="M427.6,228.3c-1.8-1.5-4.5-1.3-6,0.5l-18.9,22.7c-0.4-0.1-0.8-0.3-1.3,0h-11.1l14.1-17.2
		c1.5-1.8,1.3-4.5-0.5-6s-4.5-1.3-6,0.5l-18.7,22.7h-12.6l14.1-17.2c1.5-1.8,1.3-4.5-0.5-6s-4.5-1.3-6,0.5l-18.7,22.7h-6
		c-0.2-70.5-57.3-127.7-127.6-127.7c-70.4,0-127.7,57.3-127.7,127.7s57.3,127.7,127.7,127.7c67.6,0,123-52.9,127.2-119.7h6.4
		l18.7,22.7c0.8,1,2.1,1.5,3.3,1.5c1,0,1.9-0.3,2.7-1c1.8-1.5,2.1-4.2,0.5-6l-14.1-17.2h12.6l18.7,22.7c0.8,1,2.1,1.5,3.3,1.5
		c1,0,1.9-0.3,2.7-1c1.8-1.5,2.1-4.2,0.5-6l-14.1-17.2h11.1c0.5,0.3,0.9,0.1,1.3,0l18.9,22.7c0.8,1,2.1,1.5,3.3,1.5
		c1,0,1.9-0.3,2.7-1c1.8-1.5,2.1-4.2,0.5-6l-17.7-21.2l17.7-21.2C429.6,232.5,429.4,229.8,427.6,228.3L427.6,228.3z M221.9,371.2
		c-66,0-119.7-53.7-119.7-119.7s53.7-119.7,119.7-119.7c65.9,0,119.5,53.5,119.7,119.7h-23.9c-0.1-52.9-43-95.7-95.7-95.7
		c-52.8,0-95.7,43-95.7,95.7s43,95.7,95.7,95.7c50,0,91.1-38.6,95.3-87.8h23.9C336.9,321.9,285.1,371.2,221.9,371.2z M285.7,251.5
		c-0.1-35.3-28.7-63.8-63.8-63.8c-35.2,0-63.8,28.6-63.8,63.8s28.6,63.8,63.8,63.8c32.4,0,59.2-24.3,63.2-55.9h24.1
		c-4.2,44.8-41.7,79.8-87.3,79.8c-48.4,0-87.8-39.4-87.8-87.8s39.4-87.8,87.8-87.8c48.3,0,87.6,39.2,87.8,87.8L285.7,251.5
		L285.7,251.5z M253.8,251.5c-0.2-17.7-14.4-31.9-31.9-31.9c-17.6,0-31.9,14.3-31.9,31.9s14.3,31.9,31.9,31.9
		c14.7,0,27-10.1,30.7-23.9h24.5c-4,27.2-27.2,47.9-55.2,47.9c-30.8,0-55.9-25.1-55.9-55.9s25.1-55.9,55.9-55.9
		c30.7,0,55.7,24.9,55.8,55.9H253.8L253.8,251.5z M225.9,259.5h18.4c-3.4,9.4-12.1,16-22.4,16c-13.2,0-23.9-10.7-23.9-23.9
		s10.7-23.9,23.9-23.9c13.1,0,23.8,10.6,23.9,23.9h-19.9c-2.4-0.3-4.3,1.6-4.3,4C221.6,257.9,223.5,259.8,225.9,259.5z"/>
</g>
</svg>
