<?xml version="1.0" encoding="utf-8"?>
<!-- Generator: Adobe Illustrator 21.0.2, SVG Export Plug-In . SVG Version: 6.00 Build 0)  -->
<svg version="1.1" id="Layer_1" xmlns="http://www.w3.org/2000/svg" xmlns:xlink="http://www.w3.org/1999/xlink" x="0px" y="0px"
	 viewBox="0 0 533.3 533.3" style="enable-background:new 0 0 533.3 533.3;" xml:space="preserve">
<style type="text/css">
	.st0{fill:#004151;stroke:#004151;stroke-width:12.5;stroke-linejoin:round;}
</style>
<title>puzzle</title>
<g>
	<title>Layer 1</title>
	<path id="path1175" class="st0" d="M85.3,265.5c0.6,15.2,5.7,32.2,16.6,41.3c28.2,13.2,15.2-18.9,34.7-22.7s20.6,18.9,20.6,18.9
		l0,0v97.8h99.2c3.1,0.3,21.2,2.5,17.8,20.4c-3.8,19.5-35.9,6.5-22.7,34.7c7.7,9.2,21,14.3,34.1,16c0.2,0,0.4,0.1,0.6,0.1
		c4.6,1,9.9,1.5,15.5,1.2c15.2-0.6,32.2-5.7,41.3-16.6c13.2-28.2-18.9-15.2-22.7-34.7s18.9-20.6,18.9-20.6l97.7-0.6
		c0,0-0.8-98.1-0.8-98.1s-1.1-22.7-20.6-18.9c-19.5,3.8-6.5,35.9-34.7,22.7c-10.9-9.1-16-26.1-16.6-41.3c-0.2-5.6,0.3-10.9,1.2-15.5
		c0-0.2,0.1-0.4,0.1-0.6c1.7-13.1,6.8-26.4,16-34.1c28.2-13.2,15.2,18.9,34.7,22.7s20.6-18.9,20.6-18.9l0-97.2H334.8
		c-6.4-1.4-17.5-5.8-14.7-19.9c3.8-19.5,35.9-6.5,22.7-34.7c-7.7-9.2-21-14.3-34.1-16c-0.2,0-0.4-0.1-0.6-0.1
		c-4.6-1-9.9-1.5-15.5-1.2c-15.2,0.6-32.2,5.7-41.3,16.6c-13.2,28.2,18.9,15.2,22.7,34.7c3.8,19.5-18.9,20.6-18.9,20.6l-97.8,0.1
		v102.2c-1.5,6.4-6,17-19.8,14.3c-19.5-3.8-6.5-35.9-34.7-22.7c-9.2,7.7-14.3,21-16,34.1c0,0.2-0.1,0.4-0.1,0.6
		C85.5,254.6,85.1,259.9,85.3,265.5z"/>
</g>
</svg>
